<svg xmlns="http://www.w3.org/2000/svg" viewBox="0 0 128 128" shape-rendering="crispEdges">
  <g id="giant_spider" stroke="#15110f" stroke-width="4" stroke-linecap="square" stroke-linejoin="round">
    <path d="M42 58 L20 42 L12 46 L36 68" fill="none"/>
    <path d="M40 70 L16 70 L10 78 L38 80" fill="none"/>
    <path d="M44 82 L22 98 L14 94 L38 74" fill="none"/>
    <path d="M86 58 L108 42 L116 46 L92 68" fill="none"/>
    <path d="M88 70 L112 70 L118 78 L90 80" fill="none"/>
    <path d="M84 82 L106 98 L114 94 L90 74" fill="none"/>
    <ellipse cx="64" cy="72" rx="30" ry="24" fill="#3a2a25"/>
    <ellipse cx="64" cy="52" rx="22" ry="18" fill="#4b342e"/>
    <rect x="44" y="66" width="40" height="24" fill="#2b211f"/>
    <rect x="50" y="44" width="28" height="18" fill="#5a4038"/>
    <rect x="46" y="74" width="8" height="8" fill="#675047"/>
    <rect x="74" y="74" width="8" height="8" fill="#675047"/>
    <rect x="56" y="86" width="16" height="6" fill="#1d1716"/>
    <rect x="54" y="48" width="6" height="6" fill="#d94f46"/>
    <rect x="68" y="48" width="6" height="6" fill="#d94f46"/>
    <rect x="58" y="54" width="4" height="4" fill="#ff9b5e"/>
    <rect x="66" y="54" width="4" height="4" fill="#ff9b5e"/>
    <path d="M58 64 L52 72" fill="none" stroke="#8f6c5c" stroke-width="3"/>
    <path d="M70 64 L76 72" fill="none" stroke="#8f6c5c" stroke-width="3"/>
    <path d="M60 38 L56 28 L62 22" fill="none"/>
    <path d="M68 38 L72 28 L66 22" fill="none"/>
    <rect x="38" y="60" width="8" height="8" fill="#6a4d42" stroke="none"/>
    <rect x="82" y="60" width="8" height="8" fill="#6a4d42" stroke="none"/>
    <rect x="32" y="76" width="8" height="8" fill="#5a4038" stroke="none"/>
    <rect x="88" y="76" width="8" height="8" fill="#5a4038" stroke="none"/>
  </g>
</svg>
